Coordinates
version=1
nRows=17
nColumns=24
inDegrees=yes

Units are S.I. units (second, meters, Newtons, ...)
If the header above contains a line with 'inDegrees', this indicates whether rotational values are in degrees (yes) or radians (no).

endheader
time	pelvis_tilt	pelvis_list	pelvis_rotation	pelvis_tx	pelvis_ty	pelvis_tz	lumbar_extension	lumbar_bending	lumbar_rotation	arm_flex_r	arm_add_r	arm_rot_r	elbow_flex_r	pro_sup_r	wrist_flex_r	wrist_dev_r	arm_flex_l	arm_add_l	arm_rot_l	elbow_flex_l	pro_sup_l	wrist_flex_l	wrist_dev_l
     18.46400000	    -15.06758859	     -1.35681640	      3.94389872	      1.06961719	      0.87788793	      0.12356931	     -8.13620753	     -2.92614336	      2.90087656	     21.74409483	    -21.29366872	     52.74621078	     31.79160712	     58.55907853	    -32.13315267	    -24.99999983	     15.27965477	    -10.48010464	     25.40656865	     17.04955406	     60.83092186	    -21.36583245	    -13.86138233
     18.46800000	    -15.11493478	     -1.35098639	      3.94834222	      1.06885343	      0.87809857	      0.12325747	     -8.18632589	     -2.91639151	      2.91159228	     21.59447445	    -21.67258378	     52.19297769	     32.89799827	     58.80026976	    -32.22068672	    -24.99999983	     15.37569898	    -10.40007391	     25.15952025	     17.08051069	     60.71432861	    -21.33805672	    -13.89634867
     18.47200000	    -15.09044873	     -1.40534747	      3.89750641	      1.06902752	      0.87835352	      0.12431304	     -8.16516104	     -2.96850358	      2.84555230	     21.61193816	    -21.53203460	     52.17230173	     33.16078127	     58.84778278	    -32.22416841	    -24.99999983	     15.36347615	    -10.53958274	     25.11921473	     16.94928267	     60.68765556	    -21.36342052	    -13.88988974
     18.47600000	    -15.12168121	     -1.40304690	      3.89281671	      1.06847898	      0.87842771	      0.12394307	     -8.19901518	     -2.96182861	      2.84604810	     21.44357134	    -21.92072677	     51.66661587	     34.28036570	     59.15598097	    -32.30119411	    -24.99999983	     15.42754139	    -10.45803229	     24.98831958	     16.99398304	     60.60101687	    -21.46225992	    -13.95496469
     18.48000000	    -15.09460596	     -1.46400900	      3.83217031	      1.06867309	      0.87863686	      0.12501765	     -8.17603654	     -3.01925778	      2.76911713	     21.46409342	    -21.77809621	     51.64237641	     34.56953213	     59.21196402	    -32.30376157	    -24.99999983	     15.40786004	    -10.58675961	     24.97759808	     16.90388466	     60.59269879	    -21.45076761	    -13.95464917
     18.48400000	    -15.10797395	     -1.46543090	      3.81880318	      1.06844803	      0.87864663	      0.12470457	     -8.19110595	     -3.01615183	      2.75872027	     21.27237155	    -22.14349345	     51.25699962	     35.69137792	     59.53098936	    -32.34401752	    -24.99999983	     15.38356677	    -10.57159329	     24.98759048	     17.06445829	     60.60724524	    -21.31367999	    -14.03011940
     18.48800000	    -15.00993530	     -1.46970609	      3.83265714	      1.06978956	      0.87827554	      0.12440794	     -8.08684434	     -3.02736449	      2.76679620	     20.81379791	    -22.42955692	     50.76007944	     36.70661941	     59.90096031	    -32.37995936	    -24.99999983	     15.25482450	    -10.49275375	     24.92196259	     16.90891502	     60.55474136	    -21.23047169	    -14.10667956
     18.49200000	    -14.96987104	     -1.52688216	      3.75864072	      1.07008226	      0.87844166	      0.12549319	     -8.05060456	     -3.08021162	      2.67632816	     20.84173315	    -22.27119752	     50.73044456	     37.01234347	     59.96216187	    -32.37885643	    -24.99999983	     15.20000505	    -10.64581521	     24.90707348	     16.79628777	     60.54375963	    -21.22833212	    -14.10822670
     18.49600000	    -14.80356037	     -1.51759600	      3.86123066	      1.07277039	      0.87775291	      0.12488224	     -7.86855659	     -3.09339805	      2.77104793	     19.89706661	    -22.63795915	     49.50674537	     38.31662561	     60.63572134	    -32.48294558	    -24.99999983	     14.96592530	    -10.48726520	     24.82843072	     16.61957756	     60.45576163	    -21.16538826	    -14.30757484
     18.50000000	    -14.78788333	     -1.57990894	      3.81189751	      1.07285356	      0.87795593	      0.12604765	     -7.85754419	     -3.15372647	      2.70565616	     19.88817333	    -22.59667462	     49.51078239	     38.87347874	     60.81599492	    -32.44655766	    -24.99999983	     14.90353178	    -10.70672478	     24.89221270	     16.74194987	     60.49366386	    -21.12513645	    -14.35757254
     18.50400000	    -14.78617664	     -1.57966567	      3.73709814	      1.07278483	      0.87800118	      0.12588983	     -7.85812522	     -3.14248048	      2.63286410	     19.82125753	    -22.81634891	     49.31465744	     39.76218849	     61.10653890	    -32.41522489	    -24.99999983	     14.80049794	    -10.73494048	     24.91071586	     16.86998564	     60.49224999	    -21.09622535	    -14.40407673
     18.50800000	    -14.76450143	     -1.60047141	      3.71008587	      1.07301245	      0.87808610	      0.12609923	     -7.83705820	     -3.16139627	      2.60069889	     19.63798714	    -22.98381845	     49.01254423	     40.63115021	     61.39427164	    -32.40376136	    -24.99999983	     14.76817707	    -10.75079196	     24.85385165	     16.84922948	     60.44441895	    -21.10012262	    -14.42825562
     18.51200000	    -14.73171355	     -1.61824378	      3.68302310	      1.07333278	      0.87804180	      0.12632381	     -7.80470903	     -3.17824572	      2.56795289	     19.44239717	    -23.14243122	     48.63369447	     41.50923483	     61.70695128	    -32.39470102	    -24.99999983	     14.70868197	    -10.77989187	     24.86034954	     16.83323221	     60.44594278	    -21.13563194	    -14.44052780
     18.51600000	    -14.69187140	     -1.63937339	      3.67165142	      1.07374966	      0.87802630	      0.12652079	     -7.76444524	     -3.20069365	      2.54998338	     19.19031953	    -23.31580754	     48.24538991	     42.43938367	     62.04421534	    -32.39985574	    -24.99999983	     14.68186690	    -10.78425335	     24.94632004	     16.78308547	     60.52242518	    -21.24835596	    -14.39821605
     18.52000000	    -14.64925437	     -1.70681207	      3.60402446	      1.07398388	      0.87831044	      0.12775952	     -7.72609082	     -3.26569720	      2.46359608	     19.21218523	    -23.14918339	     48.23811742	     42.86022731	     62.12594547	    -32.39804459	    -24.99999983	     14.66067051	    -10.94315597	     24.93373498	     16.64814742	     60.51699400	    -21.26602390	    -14.37863615
     18.52400000	    -14.57838214	     -1.68526662	      3.73256913	      1.07512352	      0.87795125	      0.12680036	     -7.64534675	     -3.26226291	      2.59442534	     18.41279480	    -23.66398744	     47.13411341	     44.36836723	     62.75860626	    -32.54590295	    -24.99999983	     14.73576150	    -10.66871838	     25.01993270	     16.33166923	     60.61249074	    -21.47241641	    -14.22079638
     18.52800000	    -14.57329035	     -1.71909299	      3.66396579	      1.07509115	      0.87811986	      0.12743043	     -7.64433547	     -3.28918208	      2.51812594	     18.37990423	    -23.72565571	     47.01364041	     45.14343422	     63.02502590	    -32.50969997	    -24.99999983	     14.62190999	    -10.85404608	     25.14098803	     16.56775291	     60.72044053	    -21.45012062	    -14.23745302
